<svg width="32" height="32" viewBox="0 0 32 32" fill="none" xmlns="http://www.w3.org/2000/svg">
<path d="M5.33333 2.66666C4.59695 2.66666 4 3.26361 4 3.99999C4 4.73637 4.59695 5.33332 5.33333 5.33332H24C24.7364 5.33332 25.3333 4.73637 25.3333 3.99999C25.3333 3.26361 24.7364 2.66666 24 2.66666H5.33333Z" fill="white"/>
<path d="M4 12C4 11.2636 4.59695 10.6667 5.33333 10.6667H21.3333C22.0697 10.6667 22.6667 11.2636 22.6667 12C22.6667 12.7364 22.0697 13.3333 21.3333 13.3333H5.33333C4.59695 13.3333 4 12.7364 4 12Z" fill="white"/>
<path d="M5.33333 18.6667C4.59695 18.6667 4 19.2636 4 20C4 20.7364 4.59695 21.3333 5.33333 21.3333H26.6667C27.403 21.3333 28 20.7364 28 20C28 19.2636 27.403 18.6667 26.6667 18.6667H5.33333Z" fill="white"/>
<path d="M5.33333 26.6667C4.59695 26.6667 4 27.2636 4 28C4 28.7364 4.59695 29.3333 5.33333 29.3333H16C16.7364 29.3333 17.3333 28.7364 17.3333 28C17.3333 27.2636 16.7364 26.6667 16 26.6667H5.33333Z" fill="white"/>
</svg>
