<svg width="22" height="23" viewBox="0 0 22 23" fill="none" xmlns="http://www.w3.org/2000/svg">
<path d="M7.33331 12.4583C7.83957 12.4583 8.24998 12.0293 8.24998 11.5C8.24998 10.9707 7.83957 10.5417 7.33331 10.5417C6.82705 10.5417 6.41665 10.9707 6.41665 11.5C6.41665 12.0293 6.82705 12.4583 7.33331 12.4583Z" fill="white"/>
<path d="M11.9166 11.5C11.9166 12.0293 11.5062 12.4583 11 12.4583C10.4937 12.4583 10.0833 12.0293 10.0833 11.5C10.0833 10.9707 10.4937 10.5417 11 10.5417C11.5062 10.5417 11.9166 10.9707 11.9166 11.5Z" fill="white"/>
<path d="M14.6666 12.4583C15.1729 12.4583 15.5833 12.0293 15.5833 11.5C15.5833 10.9707 15.1729 10.5417 14.6666 10.5417C14.1604 10.5417 13.75 10.9707 13.75 11.5C13.75 12.0293 14.1604 12.4583 14.6666 12.4583Z" fill="white"/>
<path d="M8.24998 15.3333C8.24998 15.8626 7.83957 16.2917 7.33331 16.2917C6.82705 16.2917 6.41665 15.8626 6.41665 15.3333C6.41665 14.8041 6.82705 14.375 7.33331 14.375C7.83957 14.375 8.24998 14.8041 8.24998 15.3333Z" fill="white"/>
<path d="M11 16.2917C11.5062 16.2917 11.9166 15.8626 11.9166 15.3333C11.9166 14.8041 11.5062 14.375 11 14.375C10.4937 14.375 10.0833 14.8041 10.0833 15.3333C10.0833 15.8626 10.4937 16.2917 11 16.2917Z" fill="white"/>
<path fill-rule="evenodd" clip-rule="evenodd" d="M7.33331 2.87499C7.33331 2.34572 6.92291 1.91666 6.41665 1.91666C5.91039 1.91666 5.49998 2.34572 5.49998 2.87499H3.66665C2.65412 2.87499 1.83331 3.73311 1.83331 4.79166V18.2083C1.83331 19.2669 2.65412 20.125 3.66665 20.125H18.3333C19.3458 20.125 20.1666 19.2669 20.1666 18.2083V4.79166C20.1666 3.73311 19.3458 2.87499 18.3333 2.87499H16.5C16.5 2.34572 16.0896 1.91666 15.5833 1.91666C15.0771 1.91666 14.6666 2.34572 14.6666 2.87499H7.33331ZM3.66665 6.70832V4.79166H18.3333V6.70832H3.66665ZM3.66665 8.62499V18.2083H12.9906L18.3333 12.6228V8.62499H3.66665ZM18.3333 15.3333L15.5833 18.2083H18.3333V15.3333Z" fill="white"/>
</svg>
