<svg width="22" height="22" viewBox="0 0 22 22" fill="none" xmlns="http://www.w3.org/2000/svg">
<path fill-rule="evenodd" clip-rule="evenodd" d="M10.391 2.06488C10.7383 1.75616 11.2617 1.75616 11.609 2.06488L19.859 9.39822C20.2374 9.73456 20.2715 10.314 19.9351 10.6923C19.5988 11.0707 19.0194 11.1048 18.641 10.7685L18.3334 10.495V18.3333C18.3334 19.3459 17.5125 20.1667 16.5 20.1667H5.50002C4.4875 20.1667 3.66669 19.3459 3.66669 18.3333V10.495L3.35902 10.7685C2.98064 11.1048 2.40124 11.0707 2.06489 10.6923C1.72855 10.314 1.76264 9.73456 2.14102 9.39822L10.391 2.06488ZM5.50002 8.86536V18.3333H8.25002V11.9167C8.25002 10.9042 9.07083 10.0833 10.0834 10.0833H11.9167C12.9292 10.0833 13.75 10.9042 13.75 11.9167V18.3333H16.5V8.86536L11 3.97647L5.50002 8.86536ZM11.9167 18.3333V11.9167H10.0834V18.3333H11.9167Z" fill="white"/>
</svg>
