<svg width="21" height="22" viewBox="0 0 21 22" fill="none" xmlns="http://www.w3.org/2000/svg">
<path fill-rule="evenodd" clip-rule="evenodd" d="M7.875 11.9167C9.32475 11.9167 10.5 10.6855 10.5 9.16667C10.5 7.64788 9.32475 6.41667 7.875 6.41667C6.42525 6.41667 5.25 7.64788 5.25 9.16667C5.25 10.6855 6.42525 11.9167 7.875 11.9167ZM7 9.16667C7 8.66041 7.39175 8.25 7.875 8.25C8.35825 8.25 8.75 8.66041 8.75 9.16667C8.75 9.67293 8.35825 10.0833 7.875 10.0833C7.39175 10.0833 7 9.67293 7 9.16667Z" fill="white"/>
<path fill-rule="evenodd" clip-rule="evenodd" d="M3.5 2.75C2.5335 2.75 1.75 3.57081 1.75 4.58333V17.4167C1.75 18.4292 2.5335 19.25 3.5 19.25H17.5C18.4665 19.25 19.25 18.4292 19.25 17.4167V4.58333C19.25 3.57081 18.4665 2.75 17.5 2.75H3.5ZM17.5 4.58333H3.5V17.4167H3.62516L8.19592 13.4989C8.50753 13.2318 8.9529 13.2219 9.275 13.475L10.453 14.4006L13.8562 11.2315C14.1714 10.938 14.6417 10.9218 14.9747 11.1931L17.5 13.2507V4.58333ZM17.5 17.4167H6.38873L8.77347 15.3726L9.975 16.3167C10.3078 16.5782 10.7704 16.558 11.0813 16.2685L14.4748 13.1084L17.5 15.5733V17.4167Z" fill="white"/>
</svg>
