<svg width="22" height="23" viewBox="0 0 22 23" fill="none" xmlns="http://www.w3.org/2000/svg">
<path fill-rule="evenodd" clip-rule="evenodd" d="M4.16545 4.18556C4.415 3.40291 5.11558 2.875 5.90471 2.875H16.0953C16.8844 2.875 17.585 3.40291 17.8345 4.18556L20.0726 11.2049C20.1349 11.4004 20.1666 11.605 20.1666 11.811V18.2083C20.1666 19.2669 19.3458 20.125 18.3333 20.125H3.66665C2.65412 20.125 1.83331 19.2669 1.83331 18.2083V11.811C1.83331 11.605 1.86508 11.4004 1.92739 11.2049L4.16545 4.18556ZM5.90471 4.79167H16.0953L18.2341 11.5H15.5833C14.7271 11.5 14.0683 11.7296 13.5437 12.1409C13.0726 12.5103 12.768 12.9887 12.5532 13.3262L12.5289 13.3642C12.2867 13.7442 12.1379 13.9619 11.9396 14.1174C11.7766 14.2452 11.5187 14.375 11 14.375C10.4812 14.375 10.2233 14.2452 10.0604 14.1174C9.86204 13.9619 9.7133 13.7442 9.47103 13.3642L9.44678 13.3262C9.23193 12.9887 8.92737 12.5103 8.45623 12.1409C7.93167 11.7296 7.27291 11.5 6.41665 11.5H3.76582L5.90471 4.79167ZM3.66665 13.4167V18.2083H18.3333V13.4167H15.5833C15.0646 13.4167 14.8067 13.5465 14.6437 13.6742C14.4454 13.8297 14.2966 14.0475 14.0544 14.4274L14.0301 14.4655C13.8153 14.803 13.5107 15.2814 13.0396 15.6508C12.515 16.0621 11.8562 16.2917 11 16.2917C10.1437 16.2917 9.48495 16.0621 8.9604 15.6508C8.48926 15.2814 8.18469 14.803 7.96984 14.4655L7.9456 14.4274C7.70332 14.0475 7.55458 13.8297 7.35623 13.6742C7.19329 13.5465 6.93538 13.4167 6.41665 13.4167H3.66665Z" fill="white"/>
</svg>
