<svg width="22" height="22" viewBox="0 0 22 22" fill="none" xmlns="http://www.w3.org/2000/svg">
<path fill-rule="evenodd" clip-rule="evenodd" d="M11.9723 2.4815C12.3302 2.12352 12.9106 2.12352 13.2686 2.4815L19.7504 8.96331C20.1084 9.32129 20.1084 9.90169 19.7504 10.2597C19.3924 10.6177 18.812 10.6177 18.4541 10.2597L17.9484 9.75396L13.8 15.9765L14.565 16.7415C14.9229 17.0995 14.9229 17.6799 14.565 18.0379C14.207 18.3958 13.6266 18.3958 13.2686 18.0379L9.37233 14.1416C9.34546 14.1779 9.31556 14.2127 9.28263 14.2457L3.77786 19.7504C3.41988 20.1084 2.83948 20.1084 2.4815 19.7504C2.12352 19.3925 2.12352 18.812 2.4815 18.4541L7.98627 12.9493C8.0192 12.9164 8.05401 12.8865 8.09036 12.8596L4.19407 8.96332C3.83609 8.60533 3.83609 8.02493 4.19407 7.66695C4.55205 7.30897 5.13245 7.30897 5.49043 7.66695L6.25541 8.43193L12.478 4.28357L11.9723 3.77786C11.6143 3.41988 11.6143 2.83948 11.9723 2.4815ZM7.57745 9.75397L12.478 14.6545L14.0417 12.3089C13.9978 12.2783 13.9559 12.2434 13.9168 12.2042L10.0277 8.31515C9.98852 8.27598 9.95364 8.23415 9.92304 8.19024L7.57745 9.75397ZM16.6263 8.43193L15.0707 10.7654L11.4665 7.16125L13.8 5.60561L16.6263 8.43193Z" fill="white"/>
</svg>
