<svg width="21" height="22" viewBox="0 0 21 22" fill="none" xmlns="http://www.w3.org/2000/svg">
<path fill-rule="evenodd" clip-rule="evenodd" d="M10.5 1.83334C11.2582 1.83334 11.9301 2.34477 12.1644 3.10015L13.5395 7.53395H17.9896C18.7477 7.53395 19.4196 8.04538 19.6539 8.80076C19.8882 9.55613 19.6316 10.3836 19.0182 10.8505L15.418 13.5907L16.7932 18.0245C17.0274 18.7799 16.7708 19.6074 16.1574 20.0743C15.5441 20.5411 14.7135 20.5411 14.1002 20.0743L10.5 17.334L6.89982 20.0743C6.28647 20.5411 5.45592 20.5411 4.84257 20.0743C4.22922 19.6074 3.97257 18.7799 4.20685 18.0245L5.582 13.5907L1.98181 10.8505C1.36846 10.3836 1.11181 9.55613 1.34609 8.80076C1.58037 8.04538 2.25229 7.53395 3.01043 7.53395H7.46051L8.83566 3.10015C9.06994 2.34477 9.74186 1.83334 10.5 1.83334ZM8.73196 9.36729H3.01043L7.63924 12.8905L5.8712 18.5911L10.5 15.0679L15.1288 18.5911L13.3608 12.8905L17.9896 9.36729H12.2681L10.5 3.66668L8.73196 9.36729Z" fill="white"/>
</svg>
